,
Brought to you by  http://www.scenetime.com/signup.php
 
 Hottest scene tracker on the net !!!   
 
No fake torrents from scenebalance 
shame on those who comment fake before downloading my torrents

    seed back for speed


 



...................................NFO:.................................................
                   _..._                          _..._    
                .-'_..._''.                    .-'_..._''.  
        .--.  .' .'      '.\                 .' .'      '.\
        |__| / .'                           / .'            
    .|  .--.. '               .|           . '              
  .' |_ |  || |             .' |_     __   | |              
.'     ||  || |           .'     | .:--.'. | |              
'--.  .-'|  |. '          '--.  .-'/ |   \ |. '              
  |  |  |  | \ '.          .|  |  `" __ | | \ '.          .
  |  |  |__|  '. `._____.-'/|  |   .'.''| |  '. `._____.-'/
  |  '.'        `-.______ / |  '.'/ /   | |_   `-.______ /  
  |   /                  `  |   / \ \._,\ '/            `  
  `'-'                      `'-'   `--'  `"                

_____ _____  ____   ____  ____  __  _  _____  ____
| ()_)| () )| ===| (_ (_`| ===||  \| ||_   _|(_ (_`
|_|   |_|\_\|____|.__)__)|____||_|\__|  |_| .__)__)



House Of Cards 1993 DVDRip TiCTaC

 
http://www.imdb.com/title/tt0107148/



     

When Ruth Matthews's husband is killed in a fall at an archaeological dig, her daughter Sally handles her father's death in a very odd manner. As Sally's condition worsens, Ruth takes her to see Jake, an expert in childhood autism. Jake attempts to bring Sally out of her mental disarray through traditional therapy methods, but Ruth takes a different route. She risks her own sanity by attempting to enter her daughter's mind and make sense of the seemingly bizarre things that Sally does, including building a wondrous house of cards.



5.9/10 



Cast

Kathleen Turner 	Kathleen Turner 	... 	
Ruth Matthews
Tommy Lee Jones 	Tommy Lee Jones 	... 	
Jake Beerlander
Asha Menina 	Asha Menina 	... 	
Sally Matthews
Shiloh Strong 	Shiloh Strong 	... 	
Michael Matthews
Esther Rolle 	Esther Rolle 	... 	
Adelle
Park Overall 	Park Overall 	... 	
Lillian Huber
Michael Horse 	Michael Horse 	... 	
Stoker
Anne Pitoniak 	Anne Pitoniak 	... 	
Judge
Joaqun Martnez 	Joaqun Martnez 	... 	
Selord
Jacqueline Cassell 	Jacqueline Cassell 	... 	
Gloria Miller (as Jacqueline Cassel)
John Henderson 	John Henderson 	... 	
Bart Huber
Craig Fuller 	Craig Fuller 	... 	
Ray Huber
Rick Marshall 	Rick Marshall 	... 	
Frank Stearson
Reuben Valiquette Murray 	Reuben Valiquette Murray 	... 	
Reuben


  

Genres:
Drama

Country:
USA
Language:
English
Release Date:
25 June 1993

Runtime:
109 min

Color



General
Complete name                    : G:\House Of Cards 1993 DVDRip TiCTaC\House Of Cards 1993 DVDRip TiCTaC.avi
Format                           : AVI
Format/Info                      : Audio Video Interleave
File size                        : 1.30 GiB
Duration                         : 1h 49mn
Overall bit rate                 : 1 703 Kbps
Writing application              : Lavf52.13.0
Writing library                  : VirtualDub build 32842/release

Video
ID                               : 0
Format                           : MPEG-4 Visual
Format profile                   : Simple@L1
Format settings, BVOP            : No
Format settings, QPel            : No
Format settings, GMC             : No warppoints
Format settings, Matrix          : Default (H.263)
Codec ID                         : XVID
Codec ID/Hint                    : XviD
Duration                         : 1h 49mn
Bit rate                         : 1 499 Kbps
Width                            : 720 pixels
Height                           : 432 pixels
Display aspect ratio             : 16:9
Frame rate                       : 25.000 fps
Resolution                       : 8 bits
Colorimetry                      : 4:2:0
Scan type                        : Progressive
Bits/(Pixel*Frame)               : 0.193
Stream size                      : 1.15 GiB (88%)
Writing library                  : Lavc51.54.0

Audio
ID                               : 1
Format                           : MPEG Audio
Format version                   : Version 1
Format profile                   : Layer 3
Mode                             : Joint stereo
Format_Settings_ModeExtension    : MS Stereo
Codec ID                         : 55
Codec ID/Hint                    : MP3
Duration                         : 1h 49mn
Bit rate mode                    : Constant
Bit rate                         : 192 Kbps
Channel(s)                       : 2 channels
Sampling rate                    : 44.1 KHz
Stream size                      : 150 MiB (11%)
Alignment                        : Aligned on interleaves
Interleave, duration             : 26 ms (0.65 video frame)
Interleave, preload duration     : 522 ms
Writing library                  : LAME3.98 (beta)